<svg width="430" height="430" viewBox="0 0 430 430" fill="none" xmlns="http://www.w3.org/2000/svg">
<circle cx="215" cy="215" r="215" fill="#0066FF"/>
<rect width="154" height="20" transform="matrix(0 -1 -1 0 300 292)" fill="#69FF69"/>
<rect width="154" height="20" transform="matrix(0 -1 -1 0 380 292)" fill="#69FF69"/>
<rect width="163.593" height="20.2968" transform="matrix(-0.47457 -0.880218 -0.880218 0.47457 377.866 282.368)" fill="#69FF69"/>
<rect width="100" height="20" transform="matrix(-1 0 0 1 265 138)" fill="#69FF69"/>
<rect width="100" height="20" transform="matrix(-1 0 0 1 265 272)" fill="#69FF69"/>
<rect width="100" height="20" transform="matrix(-0.707107 -0.707107 -0.707107 0.707107 250 214.711)" fill="#69FF69"/>
<rect width="100" height="20" transform="matrix(0.707107 -0.707107 -0.707107 -0.707107 179.289 285.853)" fill="#69FF69"/>
<rect x="50" y="138" width="100" height="20" fill="#69FF69"/>
<rect x="50" y="272" width="100" height="20" fill="#69FF69"/>
<rect x="65" y="214.711" width="100" height="20" transform="rotate(-45 65 214.711)" fill="#69FF69"/>
<rect x="135.711" y="285.853" width="100" height="20" transform="rotate(-135 135.711 285.853)" fill="#69FF69"/>
<circle cx="390" cy="302" r="8.5" stroke="#69FF69" stroke-width="3"/>
<path d="M386.762 297.469H389.943C390.596 297.469 391.156 297.566 391.625 297.762C392.098 297.957 392.461 298.246 392.715 298.629C392.969 299.012 393.096 299.482 393.096 300.041C393.096 300.498 393.018 300.891 392.861 301.219C392.709 301.543 392.492 301.814 392.211 302.033C391.934 302.248 391.607 302.42 391.232 302.549L390.676 302.842H387.91L387.898 301.471H389.955C390.264 301.471 390.52 301.416 390.723 301.307C390.926 301.197 391.078 301.045 391.18 300.85C391.285 300.654 391.338 300.428 391.338 300.17C391.338 299.896 391.287 299.66 391.186 299.461C391.084 299.262 390.93 299.109 390.723 299.004C390.516 298.898 390.256 298.846 389.943 298.846H388.52V306H386.762V297.469ZM391.531 306L389.586 302.197L391.443 302.186L393.412 305.918V306H391.531Z" fill="#69FF69"/>
</svg>
